<svg width="24" height="25" viewBox="0 0 24 25" fill="none" xmlns="http://www.w3.org/2000/svg">
<g clip-path="url(#clip0_6_281)">
<path fill-rule="evenodd" clip-rule="evenodd" d="M12.0004 0C5.37298 0 0 5.38665 0 12.0318C0 17.1293 3.16287 21.4831 7.62723 23.2359C7.52203 22.2843 7.42712 20.8237 7.66843 19.785C7.88694 18.8459 9.07587 13.8037 9.07587 13.8037C9.07587 13.8037 8.71684 13.083 8.71684 12.0178C8.71684 10.3447 9.68358 9.09578 10.888 9.09578C11.9121 9.09578 12.4065 9.86593 12.4065 10.7903C12.4065 11.823 11.751 13.3663 11.4125 14.7967C11.13 15.994 12.0114 16.9707 13.1893 16.9707C15.3222 16.9707 16.9621 14.7155 16.9621 11.4608C16.9621 8.58013 14.8976 6.56548 11.9496 6.56548C8.53512 6.56548 6.53101 9.1334 6.53101 11.7876C6.53101 12.8211 6.9283 13.9306 7.42417 14.5333C7.52203 14.6521 7.53674 14.7568 7.50731 14.8786C7.41608 15.2585 7.21376 16.0758 7.17403 16.2426C7.12179 16.4631 6.99966 16.5096 6.77232 16.4041C5.27366 15.704 4.33708 13.5072 4.33708 11.7426C4.33708 7.94719 7.08721 4.46158 12.266 4.46158C16.4279 4.46158 19.6637 7.43596 19.6637 11.4107C19.6637 15.5572 17.0555 18.8946 13.4365 18.8946C12.2203 18.8946 11.0778 18.2609 10.6864 17.5129C10.6864 17.5129 10.0845 19.8101 9.93887 20.3729C9.66739 21.4182 8.93608 22.7284 8.44683 23.5273C9.56954 23.8755 10.7629 24.0636 12.0004 24.0636C18.627 24.0636 24 18.677 24 12.0318C24 5.38665 18.627 0 12.0004 0Z" fill="white"/>
</g>
<defs>
<clipPath id="clip0_6_281">
<rect width="24" height="25" fill="white"/>
</clipPath>
</defs>
</svg>
