<svg width="30" height="25" viewBox="0 0 30 25" fill="none" xmlns="http://www.w3.org/2000/svg">
<mask id="mask0_6_275" style="mask-type:luminance" maskUnits="userSpaceOnUse" x="0" y="0" width="30" height="25">
<path fill-rule="evenodd" clip-rule="evenodd" d="M0.00634766 24.0578H29.423V0.088623H0.00634766V24.0578Z" fill="white"/>
</mask>
<g mask="url(#mask0_6_275)">
<path fill-rule="evenodd" clip-rule="evenodd" d="M29.4231 2.92681C28.3406 3.40821 27.1771 3.73356 25.9561 3.87989C27.2024 3.13077 28.1595 1.9446 28.6103 0.531277C27.4439 1.22483 26.152 1.72856 24.777 2.00007C23.6758 0.823719 22.107 0.088623 20.3708 0.088623C17.037 0.088623 14.3341 2.79861 14.3341 6.14118C14.3341 6.61556 14.3876 7.07753 14.4905 7.52051C9.47354 7.26811 5.02558 4.85843 2.04829 1.19655C1.52868 2.0905 1.231 3.13023 1.231 4.23945C1.231 6.33931 2.29679 8.19194 3.91652 9.27732C2.92692 9.24591 1.9962 8.97365 1.18224 8.52032C1.18181 8.54557 1.18181 8.57093 1.18181 8.59639C1.18181 11.529 3.2626 13.9754 6.02411 14.5313C5.51752 14.6697 4.98425 14.7436 4.43365 14.7436C4.0447 14.7436 3.66651 14.7057 3.29801 14.635C4.06612 17.0397 6.29543 18.7896 8.93693 18.8385C6.871 20.4618 4.26813 21.4295 1.44 21.4295C0.952789 21.4295 0.472251 21.4009 0 21.345C2.67143 23.0623 5.84448 24.0643 9.25345 24.0643C20.3567 24.0643 26.4284 14.8414 26.4284 6.84304C26.4284 6.5806 26.4226 6.31956 26.411 6.06003C27.5903 5.20667 28.6138 4.1406 29.4231 2.92681Z" fill="white"/>
</g>
</svg>
